<svg width="200" height="52" viewBox="0 0 200 52" fill="none" xmlns="http://www.w3.org/2000/svg">
<path d="M63.9933 51.3278L0 31.3286V19.9992L63.9933 0L67.5158 11.3294L21.6485 25.664L67.5158 39.9985L63.9933 51.3278Z" fill="#FFFF00"/>
<path d="M85.7937 31.738C84.0687 30.5606 82.8716 28.926 82.2031 26.835L84.7304 26.5468C85.3985 28.1817 86.4013 29.4432 87.7394 30.332C89.0763 31.2215 90.7615 31.6661 92.7944 31.6661C94.9873 31.6661 96.8327 31.2097 98.3307 30.2961C99.3999 29.4551 99.9353 28.3014 99.9353 26.835C99.9353 25.9221 99.6743 25.2071 99.1532 24.6899C98.6316 24.173 97.8293 23.7707 96.7459 23.4821C95.6629 23.1939 94.1447 22.9297 92.1923 22.6889C89.892 22.377 88.0936 21.9379 86.7966 21.3729C85.4988 20.8083 84.5832 20.1173 84.0486 19.3001C83.5132 18.4835 83.2463 17.4617 83.2463 16.2358C83.2463 15.0343 83.6407 13.977 84.43 13.0633C85.2184 12.1505 86.322 11.4473 87.7398 10.9545C89.1573 10.4622 90.7753 10.2154 92.5939 10.2154C98.4776 10.2154 101.968 12.691 103.065 17.6418L100.577 18.0023C99.9886 15.9835 99.0659 14.4934 97.8091 13.5324C96.5516 12.571 94.7733 12.0905 92.4734 12.0905C91.5108 12.0905 90.6079 12.1983 89.7657 12.4146C88.9235 12.631 88.2073 12.9074 87.6194 13.2442C86.416 13.9892 85.8138 15.0706 85.8138 16.4885C85.8138 17.3302 86.0278 18.0208 86.4558 18.5613C86.8834 19.1022 87.6526 19.5709 88.7624 19.9677C89.8719 20.3641 91.4567 20.695 93.5166 20.9591C95.7892 21.2474 97.5616 21.6323 98.8322 22.1128C100.102 22.5941 101.005 23.2247 101.54 24.0052C102.074 24.7866 102.342 25.7903 102.342 27.0154C102.342 29.0109 101.466 30.591 99.7146 31.7561C97.9624 32.9221 95.5756 33.5048 92.5536 33.5048C89.7716 33.504 87.5187 32.9154 85.7937 31.738Z" fill="black"/>
<path d="M112.151 32.0984C111.202 31.2093 110.627 30.0856 110.426 28.7278C110.226 27.3704 110.125 25.4171 110.125 22.8693V12.631L106.033 12.6673V10.7927C107.879 10.7927 109.229 10.8049 110.085 10.8286V5.24096L111.008 5.20504C111.409 5.20504 112.011 5.18095 112.813 5.13278C112.813 7.65653 112.799 9.55487 112.773 10.8286C114.484 10.8286 117.56 10.8049 122 10.7563C121.946 11.1891 121.92 11.5136 121.92 11.73V12.7032L112.773 12.631C112.746 15.107 112.733 19.5046 112.733 25.8254C112.733 27.58 113.013 28.9678 113.575 29.9893C114.137 31.0111 115.233 31.5216 116.865 31.5216C118.576 31.5216 120.181 31.2334 121.679 30.6565C121.679 30.8729 121.665 31.2034 121.639 31.6479C121.612 32.0929 121.612 32.4352 121.639 32.6757C119.954 33.1799 118.309 33.4326 116.704 33.4326C114.618 33.4322 113.1 32.9876 112.151 32.0984Z" fill="black"/>
<path d="M143.783 12.0905C144.987 13.2679 145.843 15.2625 146.351 18.0745L143.744 18.5072C143.316 16.3207 142.586 14.7283 141.557 13.7306C140.528 12.7336 139.211 12.2346 137.606 12.2346C135.974 12.2346 134.583 12.7933 133.433 13.9106C132.283 15.0284 131.28 16.5967 130.424 18.6154V23.1939C130.424 27.4959 130.478 30.7884 130.585 33.0717H127.656C127.79 30.7165 127.857 27.0036 127.857 21.932C127.857 16.8853 127.803 13.1719 127.697 10.7927H130.585L130.023 17.3176H130.344C130.986 15.1543 132.055 13.4483 133.553 12.1983C135.051 10.949 136.789 10.3236 138.769 10.3236C140.908 10.3236 142.58 10.9131 143.783 12.0905Z" fill="black"/>
<path d="M151.909 30.4939C149.916 28.4873 148.92 25.669 148.92 22.0402C148.92 19.6132 149.368 17.5099 150.264 15.7312C151.16 13.9529 152.457 12.5891 154.155 11.6396C155.854 10.6904 157.852 10.2158 160.153 10.2158C162.48 10.2158 164.492 10.6904 166.191 11.6396C167.889 12.5891 169.186 13.9529 170.082 15.7312C170.978 17.5099 171.426 19.6128 171.426 22.0402C171.426 25.669 170.429 28.4873 168.437 30.4939C166.444 32.5008 163.683 33.504 160.153 33.504C156.649 33.504 153.901 32.5008 151.909 30.4939ZM166.091 29.7192C167.856 27.8446 168.738 25.273 168.738 22.0042C168.738 18.904 167.962 16.4707 166.411 14.7042C164.86 12.9378 162.707 12.0545 159.952 12.0545C158.562 12.0545 157.311 12.3132 156.201 12.8296C155.091 13.3472 154.175 14.0733 153.453 15.0106C152.223 16.9575 151.608 19.2886 151.608 22.0042C151.608 25.0811 152.376 27.4604 153.915 29.1424C155.452 30.8251 157.612 31.6661 160.394 31.6661C162.747 31.6657 164.646 31.017 166.091 29.7192Z" fill="black"/>
<path d="M182.778 31.5939C181.119 30.3442 180.076 28.7701 179.648 26.8713H179.368L179.648 33.0717H177.121L177.161 26.6186C177.188 24.7681 177.202 22.2333 177.202 19.0118C177.202 16.2484 177.175 12.0542 177.122 6.4306V5.67331L179.849 5.52921L179.769 12.4146L179.449 17.3176H179.809C180.558 15.1788 181.795 13.4728 183.52 12.1983C185.245 10.9245 187.151 10.2877 189.237 10.2877C192.366 10.2877 194.753 11.351 196.398 13.4779C198.043 15.6052 198.866 18.3991 198.866 21.8597C198.866 24.0716 198.478 26.054 197.702 27.8078C196.926 29.5625 195.783 30.9444 194.272 31.9539C192.761 32.9635 190.936 33.4677 188.796 33.4677C186.441 33.4681 184.436 32.8435 182.778 31.5939ZM193.449 29.647C194.358 28.7096 195.053 27.5741 195.535 26.24C196.017 24.9063 196.257 23.4584 196.257 21.8961C196.257 20.5746 196.03 19.1686 195.575 17.6781C195.12 16.1884 194.304 14.8902 193.128 13.7847C191.951 12.6796 190.373 12.1264 188.394 12.1264C186.468 12.1264 184.783 12.7214 183.339 13.911C181.895 15.1011 180.718 16.7534 179.809 18.8681V23.3021C179.809 25.0326 180.216 26.5286 181.033 27.7905C181.848 29.0519 182.898 30.0074 184.182 30.6565C185.466 31.3056 186.776 31.6298 188.114 31.6298C190.146 31.6294 191.925 30.9689 193.449 29.647Z" fill="black"/>
<path d="M85.5728 42.058C85.5728 43.1754 85.5795 43.9275 85.5925 44.3144H85.1246C85.142 43.7656 85.1511 42.9997 85.1511 42.0165C85.1511 41.3414 85.1444 40.7061 85.1314 40.1095H82.3897C82.381 40.9391 82.3762 41.5964 82.3762 42.0817C82.3762 42.666 82.2819 43.1604 82.0927 43.5655C81.9036 43.9706 81.5392 44.224 80.9987 44.3267L80.9395 44.0128C81.247 43.9338 81.4764 43.8055 81.628 43.6274C81.7797 43.4498 81.8772 43.2409 81.9214 42.9997C81.9652 42.7592 81.9893 42.4473 81.994 42.0639C81.994 41.2071 81.983 40.451 81.9613 39.7956H85.5925C85.5795 40.1707 85.5728 40.9248 85.5728 42.058Z" fill="black"/>
<path d="M86.9325 44.1399C86.7327 43.9642 86.6328 43.7419 86.6328 43.4735C86.6328 43.0865 86.8097 42.807 87.1635 42.6352C87.5172 42.4635 87.9776 42.3778 88.5442 42.3778L89.0646 42.3896L89.4862 42.4015V42.3245C89.4819 41.8744 89.3994 41.5297 89.2391 41.2912C89.0788 41.0524 88.7811 40.9327 88.346 40.9327C88.0514 40.9446 87.8078 41.0117 87.6144 41.1345C87.3463 41.3043 87.1662 41.5723 87.0738 41.9399L86.6652 41.8507C86.775 41.4444 86.9684 41.1361 87.2452 40.9268C87.522 40.7176 87.9109 40.6129 88.4119 40.6129C88.9524 40.6129 89.3366 40.759 89.5652 41.0512C89.7934 41.3433 89.9079 41.7852 89.9079 42.3774L89.9146 43.2125C89.919 43.2559 89.9213 43.323 89.9213 43.4138C89.9257 43.6547 89.9281 43.9547 89.9281 44.314H89.4732L89.5391 43.2362H89.4862C89.429 43.4138 89.3224 43.5927 89.1664 43.7723C89.0105 43.952 88.8119 44.102 88.5698 44.2224C88.3282 44.3429 88.0601 44.4029 87.766 44.4029C87.4102 44.4033 87.1323 44.3152 86.9325 44.1399ZM88.6232 43.8939C88.834 43.7755 89.0128 43.6326 89.1601 43.4648C89.3074 43.297 89.4183 43.1359 89.493 42.9819V42.6206C89.1064 42.6127 88.8052 42.6088 88.59 42.6088C88.1948 42.6088 87.841 42.6573 87.5287 42.7541C87.2164 42.8508 87.0608 43.0648 87.0608 43.3965C87.0608 43.6298 87.1323 43.8 87.2748 43.9089C87.4173 44.0175 87.6381 44.0716 87.9373 44.0716C88.1837 44.0716 88.4119 44.0128 88.6232 43.8939Z" fill="black"/>
<path d="M94.0728 41.1254C94.3982 41.4626 94.5605 41.9316 94.5605 42.5318C94.5605 43.124 94.4002 43.5808 94.0796 43.9026C93.759 44.2244 93.3018 44.3855 92.7087 44.3855C92.12 44.3855 91.6652 44.224 91.3442 43.9002C91.0232 43.5765 90.8633 43.1185 90.8633 42.5262V42.5026V42.1887C90.8633 41.7109 90.917 41.3268 91.0248 41.0366C91.1322 40.7467 91.3114 40.5233 91.5617 40.3677C91.8125 40.2114 92.1595 40.1079 92.6033 40.0566C92.9326 40.0211 93.1876 39.9875 93.3681 39.9559C93.5481 39.9243 93.6808 39.8856 93.7669 39.8406C93.8525 39.7952 93.8952 39.7368 93.8952 39.6657H94.3563C94.3563 39.7921 94.3015 39.8939 94.1917 39.9705C94.0819 40.0475 93.9118 40.1099 93.6808 40.1573C93.4502 40.2047 93.1371 40.2445 92.7419 40.2757C92.2148 40.3231 91.8279 40.4494 91.5819 40.6551C91.3355 40.8605 91.1819 41.1487 91.1207 41.5194C91.2613 41.2391 91.469 41.0188 91.7438 40.8589C92.0182 40.6994 92.3443 40.6192 92.7225 40.6192C93.2974 40.6188 93.7479 40.7878 94.0728 41.1254ZM94.1194 42.5144C94.1194 42.0209 93.9919 41.6339 93.7372 41.3536C93.4822 41.0733 93.1284 40.9331 92.6759 40.9331C92.443 40.9331 92.2365 40.973 92.0565 41.052C91.8764 41.1309 91.7272 41.2474 91.6083 41.4014C91.4062 41.7093 91.3051 42.0805 91.3051 42.5148C91.3051 43.0123 91.4326 43.4 91.6873 43.6784C91.942 43.9567 92.2957 44.0961 92.7486 44.0961C93.1264 44.0961 93.4384 43.9855 93.6843 43.7644C93.9741 43.4679 94.1194 43.051 94.1194 42.5144Z" fill="black"/>
<path d="M95.7392 43.8911C95.4115 43.5615 95.248 43.0983 95.248 42.5021C95.248 42.1034 95.3215 41.7579 95.4688 41.4657C95.616 41.1735 95.8288 40.9493 96.108 40.7933C96.3871 40.6374 96.7156 40.5596 97.0935 40.5596C97.4757 40.5596 97.8061 40.6374 98.0853 40.7933C98.3644 40.9497 98.5772 41.1735 98.7245 41.4657C98.8718 41.7579 98.9452 42.1034 98.9452 42.5021C98.9452 43.0983 98.7814 43.5615 98.4541 43.8911C98.1267 44.2208 97.6731 44.3855 97.0931 44.3855C96.5178 44.3855 96.0665 44.2208 95.7392 43.8911ZM98.0691 43.764C98.3593 43.456 98.5042 43.0332 98.5042 42.4962C98.5042 41.9873 98.3767 41.5873 98.122 41.2971C97.8669 41.0069 97.5132 40.8616 97.0607 40.8616C96.8321 40.8616 96.6268 40.9039 96.4444 40.9888C96.262 41.074 96.1115 41.1933 95.9927 41.3473C95.7905 41.6671 95.6895 42.0497 95.6895 42.4958C95.6895 43.0012 95.8158 43.3925 96.0685 43.6689C96.3212 43.9452 96.6757 44.0834 97.133 44.0834C97.5195 44.0834 97.8318 43.9768 98.0691 43.764Z" fill="black"/>
<path d="M99.8939 42.4848C99.8939 42.0426 99.8895 41.4306 99.8809 40.6488H100.342C100.333 40.7989 100.32 40.9892 100.303 41.2201C100.285 41.4511 100.272 41.6201 100.263 41.7267H100.322C100.445 41.3907 100.644 41.1147 100.919 40.8972C101.193 40.68 101.531 40.5714 101.93 40.5714C102.238 40.5714 102.507 40.6536 102.738 40.8174C102.968 40.9813 103.145 41.2071 103.268 41.4957C103.391 41.7836 103.453 42.1117 103.453 42.4785C103.453 42.8378 103.388 43.1615 103.258 43.4498C103.129 43.738 102.938 43.9654 102.688 44.1312C102.438 44.2971 102.137 44.38 101.785 44.38C101.552 44.38 101.33 44.3306 101.119 44.2319C100.909 44.1332 100.731 43.999 100.586 43.8288C100.441 43.659 100.344 43.4699 100.296 43.2606H100.25C100.258 43.3514 100.266 43.4344 100.273 43.5094C100.28 43.5844 100.285 43.6515 100.29 43.7107C100.316 43.9164 100.329 44.1016 100.329 44.2674L100.342 45.221H99.8813L99.8939 42.4848ZM102.148 43.9919C102.302 43.9346 102.44 43.8544 102.563 43.7522C102.713 43.5978 102.827 43.4118 102.906 43.1923C102.985 42.9732 103.025 42.7355 103.025 42.4785C103.025 42.2653 102.987 42.0367 102.913 41.7919C102.838 41.5471 102.704 41.3327 102.51 41.1491C102.317 40.9655 102.058 40.8739 101.733 40.8739C101.394 40.8739 101.112 40.9686 100.886 41.1582C100.659 41.3477 100.47 41.6221 100.316 41.9814V42.7098C100.316 42.9787 100.386 43.2172 100.526 43.4265C100.667 43.6357 100.841 43.7968 101.05 43.9093C101.259 44.0219 101.465 44.0783 101.667 44.0783C101.834 44.0779 101.994 44.0487 102.148 43.9919Z" fill="black"/>
<path d="M104.438 44.1399C104.239 43.9642 104.139 43.7419 104.139 43.4735C104.139 43.0865 104.316 42.807 104.669 42.6352C105.023 42.4635 105.483 42.3778 106.05 42.3778L106.57 42.3896L106.992 42.4015V42.3245C106.988 41.8744 106.905 41.5297 106.745 41.2912C106.585 41.0524 106.287 40.9327 105.852 40.9327C105.557 40.9446 105.314 41.0117 105.12 41.1345C104.852 41.3043 104.672 41.5723 104.58 41.9399L104.171 41.8507C104.281 41.4444 104.474 41.1361 104.751 40.9268C105.028 40.7176 105.417 40.6129 105.918 40.6129C106.458 40.6129 106.842 40.759 107.071 41.0512C107.299 41.3433 107.414 41.7852 107.414 42.3774L107.42 43.2125C107.425 43.2559 107.427 43.323 107.427 43.4138C107.432 43.6547 107.434 43.9547 107.434 44.314H106.979L107.045 43.2362H106.992C106.935 43.4138 106.828 43.5927 106.672 43.7723C106.516 43.952 106.318 44.102 106.076 44.2224C105.834 44.3429 105.566 44.4029 105.272 44.4029C104.916 44.4033 104.638 44.3152 104.438 44.1399ZM106.129 43.8939C106.34 43.7755 106.519 43.6326 106.666 43.4648C106.813 43.297 106.924 43.1359 106.999 42.9819V42.6206C106.612 42.6127 106.311 42.6088 106.096 42.6088C105.701 42.6088 105.347 42.6573 105.035 42.7541C104.722 42.8508 104.567 43.0648 104.567 43.3965C104.567 43.6298 104.638 43.8 104.781 43.9089C104.923 44.0175 105.144 44.0716 105.443 44.0716C105.69 44.0716 105.918 44.0128 106.129 43.8939Z" fill="black"/>
<path d="M110.089 40.9686C110.08 41.7109 110.076 42.2676 110.076 42.6384C110.076 43.0055 110.08 43.5646 110.089 44.3144H109.654C109.668 43.7498 109.674 43.1911 109.674 42.6384C109.674 42.0816 109.667 41.5249 109.654 40.9686C109.101 40.9686 108.654 40.9765 108.316 40.9923V40.6551H111.46V40.9923C111.139 40.9761 110.682 40.9686 110.089 40.9686Z" fill="black"/>
<path d="M112.565 43.8911C112.238 43.5615 112.074 43.0983 112.074 42.5021C112.074 42.1034 112.148 41.7579 112.295 41.4657C112.442 41.1735 112.655 40.9493 112.934 40.7933C113.213 40.6374 113.542 40.5596 113.92 40.5596C114.302 40.5596 114.632 40.6374 114.911 40.7933C115.191 40.9497 115.403 41.1735 115.551 41.4657C115.698 41.7579 115.771 42.1034 115.771 42.5021C115.771 43.0983 115.608 43.5615 115.28 43.8911C114.953 44.2208 114.499 44.3855 113.919 44.3855C113.344 44.3855 112.893 44.2208 112.565 43.8911ZM114.895 43.764C115.185 43.456 115.33 43.0332 115.33 42.4962C115.33 41.9873 115.202 41.5873 114.948 41.2971C114.693 41.0069 114.339 40.8616 113.886 40.8616C113.658 40.8616 113.453 40.9039 113.27 40.9888C113.088 41.074 112.937 41.1933 112.818 41.3473C112.616 41.6671 112.515 42.0497 112.515 42.4958C112.515 43.0012 112.642 43.3925 112.894 43.6689C113.147 43.9452 113.502 44.0834 113.959 44.0834C114.346 44.0834 114.658 43.9768 114.895 43.764Z" fill="black"/>
<path d="M116.72 42.4848C116.72 42.0426 116.716 41.4306 116.707 40.6488H117.168C117.16 40.7989 117.146 40.9892 117.129 41.2201C117.111 41.4511 117.098 41.6201 117.089 41.7267H117.148C117.272 41.3907 117.47 41.1147 117.745 40.8972C118.019 40.68 118.357 40.5714 118.757 40.5714C119.064 40.5714 119.333 40.6536 119.564 40.8174C119.795 40.9813 119.971 41.2071 120.095 41.4957C120.217 41.7836 120.279 42.1117 120.279 42.4785C120.279 42.8378 120.214 43.1615 120.084 43.4498C119.955 43.738 119.765 43.9654 119.514 44.1312C119.264 44.2971 118.963 44.38 118.611 44.38C118.378 44.38 118.156 44.3306 117.946 44.2319C117.735 44.1332 117.557 43.999 117.412 43.8288C117.267 43.659 117.17 43.4699 117.122 43.2606H117.076C117.084 43.3514 117.092 43.4344 117.099 43.5094C117.106 43.5844 117.111 43.6515 117.116 43.7107C117.142 43.9164 117.155 44.1016 117.155 44.2674L117.169 45.221H116.707L116.72 42.4848ZM118.974 43.9919C119.128 43.9346 119.266 43.8544 119.39 43.7522C119.539 43.5978 119.653 43.4118 119.732 43.1923C119.812 42.9732 119.851 42.7355 119.851 42.4785C119.851 42.2653 119.814 42.0367 119.739 41.7919C119.664 41.5471 119.53 41.3327 119.337 41.1491C119.143 40.9655 118.884 40.8739 118.559 40.8739C118.22 40.8739 117.938 40.9686 117.712 41.1582C117.486 41.3477 117.296 41.6221 117.142 41.9814V42.7098C117.142 42.9787 117.212 43.2172 117.353 43.4265C117.493 43.6357 117.668 43.7968 117.877 43.9093C118.085 44.0219 118.291 44.0783 118.493 44.0783C118.66 44.0779 118.821 44.0487 118.974 43.9919Z" fill="black"/>
<path d="M121.228 42.3841C121.228 41.9103 121.224 41.3338 121.215 40.6547H121.61C121.606 41.0338 121.603 41.8432 121.603 43.0826C121.603 43.3668 121.59 43.657 121.564 43.9531H121.603C121.634 43.8939 121.757 43.7005 121.973 43.3727L123.877 40.6544H124.418C124.409 41.0887 124.405 41.446 124.405 41.7263C124.405 42.7687 124.407 43.4316 124.411 43.7162V44.3144H124.016C124.021 44.0222 124.023 43.4636 124.023 42.6384V41.7145C124.023 41.596 124.032 41.4266 124.049 41.2051L124.062 41.0038H124.016C123.95 41.1262 123.796 41.3532 123.555 41.6849L121.723 44.3144H121.215C121.224 43.4541 121.228 42.8105 121.228 42.3841Z" fill="black"/>
<path d="M128.629 41.14C128.616 42.0521 128.609 42.5041 128.609 42.4962C128.609 42.9112 128.616 43.3376 128.629 43.7755L128.636 44.3144H128.188V42.7331H127.12C126.83 42.7331 126.61 42.7864 126.461 42.893C126.312 42.9996 126.184 43.1829 126.079 43.4438C126.03 43.5702 125.975 43.7253 125.914 43.9089C125.853 44.0925 125.811 44.228 125.789 44.3144H125.348C125.365 44.2473 125.424 44.0874 125.526 43.8347C125.547 43.7794 125.571 43.7202 125.595 43.657C125.619 43.5939 125.642 43.5307 125.664 43.4679C125.774 43.1915 125.906 42.9949 126.06 42.8784C126.213 42.762 126.435 42.6941 126.725 42.6739V42.6206C126.347 42.6127 126.056 42.5282 125.852 42.366C125.648 42.2037 125.546 41.9648 125.546 41.6493C125.546 41.3927 125.602 41.1925 125.714 41.0484C125.826 40.9043 125.993 40.8028 126.215 40.7436C126.437 40.6844 126.726 40.6548 127.082 40.6548H128.637L128.629 41.14ZM126.227 42.3423C126.4 42.4726 126.707 42.5377 127.146 42.5377H128.188V40.9386H127.133C126.844 40.9386 126.616 40.9604 126.451 41.0038C126.287 41.0472 126.165 41.1254 126.085 41.2375C126.006 41.3501 125.967 41.5111 125.967 41.7204C125.967 42.0051 126.053 42.212 126.227 42.3423Z" fill="black"/>
<path d="M132.192 44.1632C131.917 44.0151 131.706 43.7999 131.559 43.5176C131.411 43.2353 131.338 42.897 131.338 42.5021C131.338 42.099 131.411 41.752 131.559 41.4594C131.706 41.1676 131.919 40.9441 132.198 40.7906C132.477 40.6362 132.807 40.5596 133.19 40.5596C133.66 40.5596 134.043 40.6741 134.34 40.9031C134.636 41.1321 134.835 41.4594 134.936 41.8858L134.495 41.9217C134.407 41.5857 134.248 41.3251 134.02 41.14C133.791 40.9544 133.508 40.8616 133.17 40.8616C132.941 40.8616 132.734 40.9039 132.547 40.9888C132.36 41.074 132.205 41.1933 132.082 41.3473C131.88 41.6548 131.779 42.0382 131.779 42.4958C131.779 42.9898 131.904 43.3763 132.155 43.6566C132.406 43.9369 132.75 44.0771 133.19 44.0771C133.59 44.0771 133.908 43.9701 134.145 43.7569C134.308 43.5836 134.429 43.3601 134.508 43.0877H134.943C134.846 43.5101 134.647 43.8323 134.346 44.053C134.045 44.2745 133.651 44.3847 133.163 44.3847C132.79 44.3855 132.466 44.3112 132.192 44.1632Z" fill="black"/>
<path d="M135.894 42.4848C135.894 41.6754 135.89 41.0654 135.881 40.6548H137.522C138.045 40.6548 138.432 40.7227 138.685 40.8589C138.938 40.9955 139.064 41.2253 139.064 41.549C139.064 41.8175 138.976 42.0197 138.8 42.1559C138.625 42.2925 138.363 42.3762 138.016 42.4078V42.4611C138.403 42.4887 138.69 42.5717 138.88 42.7098C139.068 42.8484 139.163 43.0597 139.163 43.3436C139.163 43.6871 139.038 43.935 138.787 44.087C138.536 44.239 138.141 44.3148 137.601 44.3148H135.881C135.89 43.6831 135.894 43.0731 135.894 42.4848ZM138.375 42.1381C138.553 42.0256 138.642 41.857 138.642 41.632C138.642 41.4543 138.603 41.3161 138.524 41.2174C138.444 41.1187 138.322 41.0496 138.155 41.0101C137.988 40.9706 137.761 40.9513 137.476 40.9513H136.323V42.3075H137.456C137.891 42.3067 138.197 42.2507 138.375 42.1381ZM138.26 43.9476C138.431 43.9003 138.553 43.8248 138.626 43.7226C138.698 43.6203 138.734 43.4778 138.734 43.2962C138.734 43.0514 138.636 42.8698 138.438 42.7513C138.24 42.6329 137.921 42.5736 137.482 42.5736H136.322V44.0187H137.542C137.849 44.0183 138.089 43.995 138.26 43.9476Z" fill="black"/>
<path d="M142.95 43.0885L143.385 43.0948C143.293 43.5094 143.094 43.828 142.789 44.0511C142.483 44.2742 142.093 44.3859 141.619 44.3859C141.03 44.3859 140.578 44.2173 140.264 43.8797C139.95 43.5425 139.793 43.0794 139.793 42.4907C139.793 41.8866 139.956 41.4148 140.284 41.0752C140.611 40.7361 141.065 40.5659 141.645 40.5659C142.19 40.5659 142.613 40.7246 142.914 41.0429C143.215 41.3607 143.379 41.808 143.405 42.3841H143.385L140.235 42.6506C140.257 43.1007 140.394 43.4521 140.647 43.7048C140.9 43.9575 141.221 44.0838 141.612 44.0838C142.021 44.0838 142.346 43.9753 142.588 43.7581C142.754 43.5844 142.875 43.3609 142.95 43.0885ZM140.234 42.4019L142.957 42.1887C142.908 41.7697 142.771 41.4452 142.545 41.2142C142.318 40.9833 142.012 40.8676 141.625 40.8676C141.397 40.8676 141.186 40.9122 140.992 41.001C140.799 41.0899 140.641 41.2111 140.518 41.3654C140.342 41.6418 140.248 41.9873 140.234 42.4019Z" fill="black"/>
<path d="M145.746 40.9686C145.737 41.7109 145.733 42.2676 145.733 42.6384C145.733 43.0055 145.737 43.5646 145.746 44.3144H145.311C145.324 43.7498 145.33 43.1911 145.33 42.6384C145.33 42.0816 145.324 41.5249 145.311 40.9686C144.757 40.9686 144.311 40.9765 143.973 40.9923V40.6551H147.116V40.9923C146.796 40.9761 146.339 40.9686 145.746 40.9686Z" fill="black"/>
<path d="M148.221 43.8911C147.894 43.5615 147.73 43.0983 147.73 42.5021C147.73 42.1034 147.804 41.7579 147.951 41.4657C148.098 41.1735 148.312 40.9493 148.591 40.7933C148.87 40.6374 149.198 40.5596 149.576 40.5596C149.958 40.5596 150.289 40.6374 150.568 40.7933C150.847 40.9497 151.06 41.1735 151.207 41.4657C151.354 41.7579 151.428 42.1034 151.428 42.5021C151.428 43.0983 151.264 43.5615 150.937 43.8911C150.61 44.2208 150.156 44.3855 149.576 44.3855C149 44.3855 148.549 44.2208 148.221 43.8911ZM150.551 43.764C150.841 43.456 150.986 43.0332 150.986 42.4962C150.986 41.9873 150.859 41.5873 150.604 41.2971C150.349 41.0069 149.995 40.8616 149.542 40.8616C149.314 40.8616 149.108 40.9039 148.926 40.9888C148.744 41.074 148.593 41.1933 148.474 41.3473C148.272 41.6671 148.171 42.0497 148.171 42.4958C148.171 43.0012 148.297 43.3925 148.55 43.6689C148.803 43.9452 149.157 44.0834 149.614 44.0834C150.002 44.0834 150.314 43.9768 150.551 43.764Z" fill="black"/>
<path d="M152.375 42.4848C152.375 41.6754 152.37 41.0654 152.361 40.6548H154.003C154.525 40.6548 154.913 40.7227 155.166 40.8589C155.418 40.9955 155.544 41.2253 155.544 41.549C155.544 41.8175 155.456 42.0197 155.281 42.1559C155.105 42.2925 154.844 42.3762 154.497 42.4078V42.4611C154.883 42.4887 155.171 42.5717 155.36 42.7098C155.55 42.8484 155.644 43.0597 155.644 43.3436C155.644 43.6871 155.519 43.935 155.268 44.087C155.018 44.239 154.622 44.3148 154.082 44.3148H152.362C152.37 43.6831 152.375 43.0731 152.375 42.4848ZM154.856 42.1381C155.034 42.0256 155.123 41.857 155.123 41.632C155.123 41.4543 155.084 41.3161 155.005 41.2174C154.926 41.1187 154.802 41.0496 154.636 41.0101C154.468 40.9706 154.242 40.9513 153.956 40.9513H152.803V42.3075H153.937C154.372 42.3067 154.678 42.2507 154.856 42.1381ZM154.741 43.9476C154.912 43.9003 155.034 43.8248 155.107 43.7226C155.18 43.6203 155.216 43.4778 155.216 43.2962C155.216 43.0514 155.116 42.8698 154.919 42.7513C154.721 42.6329 154.402 42.5736 153.963 42.5736H152.803V44.0187H154.022C154.33 44.0183 154.57 43.995 154.741 43.9476Z" fill="black"/>
<path d="M156.541 42.4848C156.541 41.6754 156.536 41.0654 156.527 40.6547H156.969C156.964 40.8439 156.962 41.1242 156.962 41.4957C156.962 41.8629 156.964 42.1393 156.969 42.3249H158.287C158.815 42.3249 159.2 42.4137 159.444 42.5914C159.688 42.7691 159.81 43.0139 159.81 43.3258C159.81 43.6772 159.685 43.9299 159.434 44.0838C159.184 44.2378 158.788 44.3148 158.248 44.3148H156.528C156.536 43.6831 156.541 43.0731 156.541 42.4848ZM158.903 43.9476C159.077 43.9003 159.2 43.8244 159.273 43.7194C159.346 43.6148 159.382 43.4719 159.382 43.2902C159.382 43.0375 159.282 42.8512 159.085 42.7304C158.887 42.6099 158.567 42.5499 158.122 42.5499H156.969V44.0187H158.182C158.489 44.0183 158.73 43.995 158.903 43.9476ZM160.508 44.1664C160.517 43.4241 160.521 42.8792 160.521 42.5318C160.521 42.1093 160.517 41.4835 160.508 40.6544H160.963C160.95 41.2383 160.943 41.8641 160.943 42.5318C160.943 43.1437 160.95 43.738 160.963 44.3144H160.508V44.1664Z" fill="black"/>
<path d="M163.038 42.6802C163.078 42.621 163.134 42.5665 163.207 42.5172C163.279 42.4678 163.353 42.4429 163.427 42.4429V42.3896C163.348 42.3896 163.276 42.3679 163.21 42.3245C163.144 42.281 163.093 42.2297 163.058 42.1705C162.513 41.4594 162.131 40.9544 161.912 40.6544H162.393L163.553 42.2534H163.645L164.799 40.6544H165.286C165.233 40.729 164.974 41.0745 164.508 41.6908L164.146 42.1642C164.106 42.2234 164.054 42.2759 163.988 42.3209C163.922 42.3663 163.849 42.3892 163.77 42.3892V42.4425C163.849 42.4425 163.924 42.467 163.994 42.5168C164.065 42.5661 164.119 42.6226 164.159 42.6858L164.745 43.4379C164.991 43.7656 165.218 44.0574 165.424 44.3144H164.93L163.645 42.591H163.553L162.261 44.3144H161.773C162.305 43.6199 162.727 43.075 163.038 42.6802Z" fill="black"/>
<path d="M168.015 42.4848C168.015 42.0426 168.011 41.4306 168.002 40.6488H168.464C168.455 40.7989 168.441 40.9892 168.424 41.2201C168.406 41.4511 168.393 41.6201 168.384 41.7267H168.443C168.567 41.3907 168.765 41.1147 169.04 40.8972C169.314 40.68 169.652 40.5714 170.052 40.5714C170.359 40.5714 170.628 40.6536 170.859 40.8174C171.09 40.9813 171.266 41.2071 171.39 41.4957C171.513 41.7836 171.574 42.1117 171.574 42.4785C171.574 42.8378 171.51 43.1615 171.38 43.4498C171.25 43.738 171.06 43.9654 170.81 44.1312C170.56 44.2971 170.259 44.38 169.907 44.38C169.674 44.38 169.453 44.3306 169.241 44.2319C169.03 44.1332 168.852 43.999 168.707 43.8288C168.562 43.659 168.466 43.4699 168.417 43.2606H168.372C168.38 43.3514 168.388 43.4344 168.394 43.5094C168.402 43.5844 168.407 43.6515 168.411 43.7107C168.437 43.9164 168.451 44.1016 168.451 44.2674L168.464 45.221H168.002L168.015 42.4848ZM170.269 43.9919C170.423 43.9346 170.561 43.8544 170.684 43.7522C170.834 43.5978 170.948 43.4118 171.027 43.1923C171.106 42.9732 171.146 42.7355 171.146 42.4785C171.146 42.2653 171.108 42.0367 171.034 41.7919C170.959 41.5471 170.825 41.3327 170.632 41.1491C170.438 40.9655 170.179 40.8739 169.854 40.8739C169.516 40.8739 169.233 40.9686 169.007 41.1582C168.781 41.3477 168.59 41.6221 168.437 41.9814V42.7098C168.437 42.9787 168.507 43.2172 168.648 43.4265C168.788 43.6357 168.963 43.7968 169.171 43.9093C169.38 44.0219 169.586 44.0783 169.788 44.0783C169.955 44.0779 170.115 44.0487 170.269 43.9919Z" fill="black"/>
<path d="M175.416 43.0885L175.852 43.0948C175.76 43.5094 175.561 43.828 175.255 44.0511C174.95 44.2742 174.56 44.3859 174.085 44.3859C173.496 44.3859 173.045 44.2173 172.731 43.8797C172.417 43.5425 172.26 43.0794 172.26 42.4907C172.26 41.8866 172.423 41.4148 172.751 41.0752C173.078 40.7361 173.532 40.5659 174.112 40.5659C174.656 40.5659 175.079 40.7246 175.38 41.0429C175.681 41.3607 175.845 41.808 175.871 42.3841H175.852L172.701 42.6506C172.723 43.1007 172.86 43.4521 173.113 43.7048C173.366 43.9575 173.687 44.0838 174.079 44.0838C174.487 44.0838 174.812 43.9753 175.054 43.7581C175.221 43.5844 175.342 43.3609 175.416 43.0885ZM172.701 42.4019L175.424 42.1887C175.375 41.7697 175.238 41.4452 175.011 41.2142C174.785 40.9833 174.478 40.8676 174.092 40.8676C173.864 40.8676 173.653 40.9122 173.459 41.001C173.266 41.0899 173.107 41.2111 172.985 41.3654C172.809 41.6418 172.714 41.9873 172.701 42.4019Z" fill="black"/>
<path d="M182.448 44.3144H176.807C176.815 43.4695 176.82 42.8595 176.82 42.4844C176.82 42.1211 176.815 41.5605 176.807 40.8024V40.6544H177.261C177.248 41.2738 177.242 41.8838 177.242 42.4844L177.255 43.9887C177.575 43.997 177.949 44.0005 178.375 44.0005C178.758 44.0005 179.098 43.9986 179.397 43.9946C179.405 43.2918 179.41 42.788 179.41 42.4844C179.41 42.0777 179.405 41.4677 179.397 40.6544H179.858C179.841 41.2067 179.832 41.8167 179.832 42.4844C179.832 42.9779 179.839 43.4794 179.852 43.9887C180.172 43.997 180.544 44.0005 180.965 44.0005C181.348 44.0005 181.688 43.9986 181.987 43.9946C181.996 43.2918 182 42.788 182 42.4844C182 42.0777 181.996 41.4677 181.987 40.6544H182.442C182.429 41.2738 182.422 41.8838 182.422 42.4844C182.422 43.156 182.431 43.766 182.448 44.3144Z" fill="black"/>
<path d="M186.534 43.0885L186.969 43.0948C186.877 43.5094 186.678 43.828 186.373 44.0511C186.067 44.2742 185.677 44.3859 185.203 44.3859C184.614 44.3859 184.162 44.2173 183.848 43.8797C183.534 43.5425 183.377 43.0794 183.377 42.4907C183.377 41.8866 183.54 41.4148 183.868 41.0752C184.195 40.7361 184.649 40.5659 185.229 40.5659C185.774 40.5659 186.196 40.7246 186.497 41.0429C186.799 41.3607 186.962 41.808 186.988 42.3841H186.969L183.818 42.6506C183.84 43.1007 183.977 43.4521 184.23 43.7048C184.483 43.9575 184.805 44.0838 185.196 44.0838C185.604 44.0838 185.93 43.9753 186.171 43.7581C186.338 43.5844 186.459 43.3609 186.534 43.0885ZM183.818 42.4019L186.541 42.1887C186.492 41.7697 186.355 41.4452 186.129 41.2142C185.902 40.9833 185.596 40.8676 185.209 40.8676C184.981 40.8676 184.77 40.9122 184.576 41.001C184.383 41.0899 184.225 41.2111 184.102 41.3654C183.926 41.6418 183.831 41.9873 183.818 42.4019Z" fill="black"/>
<path d="M191.199 42.4848C191.199 43.081 191.206 43.691 191.219 44.3148H190.765V44.1905C190.773 43.4798 190.778 42.959 190.778 42.6269C190.219 42.6115 189.813 42.6032 189.558 42.6032C189.29 42.6032 188.89 42.6092 188.359 42.621C188.359 43.3672 188.366 43.9318 188.379 44.3148H187.924V44.1668C187.933 43.4087 187.937 42.848 187.937 42.4848C187.937 42.1097 187.933 41.4997 187.924 40.6548H188.379C188.366 41.2269 188.359 41.7938 188.359 42.3545C188.89 42.3663 189.29 42.3723 189.558 42.3723C189.813 42.3723 190.219 42.3644 190.778 42.3482C190.778 41.9932 190.773 41.4286 190.765 40.6548H191.219C191.206 41.2825 191.199 41.8925 191.199 42.4848Z" fill="black"/>
<path d="M192.422 42.3841C192.422 41.9103 192.417 41.3338 192.408 40.6547H192.804C192.799 41.0338 192.797 41.8432 192.797 43.0826C192.797 43.3668 192.784 43.657 192.757 43.9531H192.797C192.828 43.8939 192.951 43.7005 193.166 43.3727L195.071 40.6544H195.611C195.603 41.0887 195.598 41.446 195.598 41.7263C195.598 42.7687 195.6 43.4316 195.605 43.7162V44.3144H195.21C195.214 44.0222 195.216 43.4636 195.216 42.6384V41.7145C195.216 41.596 195.225 41.4266 195.242 41.2051L195.256 41.0038H195.21C195.144 41.1262 194.99 41.3532 194.748 41.6849L192.916 44.3144H192.408C192.417 43.4541 192.422 42.8105 192.422 42.3841Z" fill="black"/>
<path d="M196.81 42.3841C196.81 41.9103 196.806 41.3339 196.797 40.6548H197.192C197.188 41.0338 197.186 41.8432 197.186 43.0826C197.186 43.3668 197.173 43.657 197.146 43.9532H197.186C197.216 43.8939 197.34 43.7005 197.555 43.3728L199.46 40.6544H200C199.991 41.0887 199.987 41.446 199.987 41.7263C199.987 42.7687 199.989 43.4316 199.994 43.7163V44.3144H199.598C199.603 44.0223 199.605 43.4636 199.605 42.6384V41.7145C199.605 41.596 199.614 41.4267 199.631 41.2052L199.644 41.0038H199.598C199.532 41.1262 199.378 41.3532 199.137 41.6849L197.305 44.3144H196.797C196.806 43.4541 196.81 42.8105 196.81 42.3841ZM199.028 39.8785C198.872 39.9891 198.671 40.0444 198.425 40.0444C198.17 40.0444 197.967 39.9883 197.815 39.8758C197.664 39.7632 197.581 39.61 197.568 39.4166L197.779 39.381C197.783 39.5196 197.845 39.6278 197.964 39.7068C198.082 39.7857 198.236 39.8252 198.425 39.8252C198.618 39.8252 198.774 39.7842 198.893 39.7013C199.012 39.6183 199.073 39.5117 199.078 39.381L199.282 39.4166C199.268 39.614 199.184 39.7684 199.028 39.8785Z" fill="black"/>
</svg>
