<svg width="64" height="69" viewBox="0 0 64 69" fill="none" xmlns="http://www.w3.org/2000/svg">
<path d="M32 63C17.664 63 6 51.337 6 37C6 22.664 17.664 11 32 11C46.337 11 58 22.664 58 37C58 51.337 46.337 63 32 63ZM32 13C18.767 13 8 23.767 8 37C8 50.233 18.767 61 32 61C45.233 61 56 50.233 56 37C56 23.767 45.233 13 32 13Z" fill="black"/>
<path d="M55.307 15.107L56.042 14.373L56.749 15.081C56.937 15.269 57.19 15.374 57.456 15.374C57.722 15.374 57.976 15.269 58.163 15.081L60.284 12.96C60.675 12.569 60.675 11.937 60.284 11.546L57.456 8.717C57.268 8.529 57.015 8.424 56.749 8.424C56.483 8.424 56.229 8.529 56.042 8.717L53.921 10.838C53.53 11.229 53.53 11.861 53.921 12.252L54.628 12.959L53.893 13.694C48.85 8.953 42.276 5.825 35 5.145V2H36C36.553 2 37 1.552 37 1C37 0.448 36.553 0 36 0H34H30H28C27.448 0 27 0.448 27 1C27 1.552 27.448 2 28 2H29V5.145C21.723 5.825 15.15 8.953 10.107 13.693L9.373 12.959L10.08 12.251C10.471 11.86 10.471 11.228 10.08 10.837L7.959 8.716C7.584 8.341 6.92 8.341 6.545 8.716L3.716 11.545C3.528 11.733 3.423 11.987 3.423 12.252C3.423 12.517 3.528 12.772 3.716 12.959L5.838 15.08C6.026 15.268 6.28 15.373 6.545 15.373C6.81 15.373 7.065 15.268 7.252 15.08L7.959 14.372L8.693 15.106C3.309 20.835 0 28.537 0 37C0 54.645 14.355 69 32 69C49.645 69 64 54.645 64 37C64 28.537 60.691 20.835 55.307 15.107ZM56.749 10.837L58.163 12.252L57.456 12.959L56.042 11.544L56.749 10.837ZM6.544 12.959L5.836 12.252L7.251 10.837L7.958 11.544L6.544 12.959ZM31 5V2H33V5H31ZM32 67C15.458 67 2 53.542 2 37C2 20.458 15.458 7 32 7C48.542 7 62 20.458 62 37C62 53.542 48.542 67 32 67Z" fill="black"/>
<path d="M33 33.142V24C33 23.448 32.552 23 32 23C31.448 23 31 23.448 31 24V33.142C29.28 33.589 28 35.142 28 37C28 39.206 29.794 41 32 41C34.206 41 36 39.206 36 37C36 35.142 34.721 33.589 33 33.142ZM32 39C30.897 39 30 38.103 30 37C30 35.897 30.897 35 32 35C33.103 35 34 35.897 34 37C34 38.103 33.103 39 32 39Z" fill="black"/>
<path d="M32 18C31.448 18 31 17.552 31 17V16C31 15.448 31.448 15 32 15C32.552 15 33 15.448 33 16V17C33 17.552 32.552 18 32 18Z" fill="black"/>
<path d="M17.8576 23.8569C17.6016 23.8569 17.3456 23.7589 17.1506 23.5639L16.4436 22.8569C16.0526 22.4659 16.0526 21.8339 16.4436 21.4429C16.8346 21.0519 17.4666 21.0519 17.8576 21.4429L18.5646 22.1499C18.9556 22.5409 18.9556 23.1729 18.5646 23.5639C18.3696 23.7599 18.1136 23.8569 17.8576 23.8569Z" fill="black"/>
<path d="M12 38H11C10.448 38 10 37.553 10 37C10 36.447 10.448 36 11 36H12C12.552 36 13 36.447 13 37C13 37.553 12.552 38 12 38Z" fill="black"/>
<path d="M17.1506 52.8501C16.8946 52.8501 16.6386 52.7521 16.4436 52.5571C16.0526 52.1661 16.0526 51.5341 16.4436 51.1431L17.1506 50.4361C17.5416 50.0451 18.1736 50.0451 18.5646 50.4361C18.9556 50.8271 18.9556 51.4591 18.5646 51.8501L17.8576 52.5571C17.6626 52.7521 17.4066 52.8501 17.1506 52.8501Z" fill="black"/>
<path d="M32 59C31.448 59 31 58.553 31 58V57C31 56.447 31.448 56 32 56C32.552 56 33 56.447 33 57V58C33 58.553 32.552 59 32 59Z" fill="black"/>
<path d="M46.8498 52.8501C46.5938 52.8501 46.3378 52.7521 46.1428 52.5571L45.4358 51.8501C45.0448 51.4591 45.0448 50.8271 45.4358 50.4361C45.8268 50.0451 46.4588 50.0451 46.8498 50.4361L47.5568 51.1431C47.9478 51.5341 47.9478 52.1661 47.5568 52.5571C47.3608 52.7521 47.1048 52.8501 46.8498 52.8501Z" fill="black"/>
<path d="M53 38H52C51.447 38 51 37.553 51 37C51 36.447 51.447 36 52 36H53C53.553 36 54 36.447 54 37C54 37.553 53.553 38 53 38Z" fill="black"/>
<path d="M46.1428 23.8569C45.8868 23.8569 45.6308 23.7589 45.4358 23.5639C45.0448 23.1729 45.0448 22.5409 45.4358 22.1499L46.1428 21.4429C46.5338 21.0519 47.1658 21.0519 47.5568 21.4429C47.9478 21.8339 47.9478 22.4659 47.5568 22.8569L46.8498 23.5639C46.6538 23.7599 46.3978 23.8569 46.1428 23.8569Z" fill="black"/>
</svg>
