<svg width="63" height="69" viewBox="0 0 63 69" fill="none" xmlns="http://www.w3.org/2000/svg">
<path d="M27.6719 32.224C27.7441 32.224 27.8164 32.224 27.8886 32.2963C27.8164 32.224 27.8164 32.224 27.7441 32.224C27.6719 32.224 27.6719 32.224 27.6719 32.224Z" fill="black"/>
<path d="M62.2084 13.3665C62.6419 12.4272 62.9309 11.488 62.9309 10.4764C62.9309 4.62408 54.1162 0 42.9173 0C31.7183 0 22.9037 4.62408 22.9037 10.4764C22.9037 11.488 23.1927 12.4272 23.6262 13.3665C23.1927 14.3058 22.9037 15.245 22.9037 16.2565C22.9037 17.2681 23.1927 18.2073 23.6262 19.1466C23.1927 20.0859 22.9037 21.0251 22.9037 22.0366C22.9037 23.0482 23.1927 23.9874 23.6262 24.9267C23.5539 24.999 23.5539 25.0712 23.5539 25.0712C22.3979 24.9267 21.2419 24.9267 20.0136 24.9267C8.81466 24.9267 0 29.5508 0 35.4031C0 36.4147 0.289005 37.3539 0.722513 38.2932C0.289005 39.2325 0 40.1717 0 41.1832C0 42.1948 0.289005 43.134 0.722513 44.0733C0.289005 45.0126 0 45.9518 0 46.9633C0 47.9749 0.289005 48.9141 0.722513 49.8534C0.289005 50.7927 0 51.7319 0 52.7435C0 53.755 0.289005 54.6942 0.722513 55.6335C0.289005 56.5728 0 57.512 0 58.5236C0 64.3759 8.81466 69 20.0136 69C29.4063 69 37.2094 65.7487 39.377 61.1969C40.533 61.3414 41.689 61.3414 42.9173 61.3414C54.1162 61.3414 62.9309 56.7173 62.9309 50.8649C62.9309 49.8534 62.6419 48.9141 62.2084 47.9749C62.6419 47.0356 62.9309 46.0963 62.9309 45.0848C62.9309 44.0733 62.6419 43.134 62.2084 42.1948C62.6419 41.2555 62.9309 40.3162 62.9309 39.3047C62.9309 38.2932 62.6419 37.3539 62.2084 36.4147C62.6419 35.4754 62.9309 34.5361 62.9309 33.5246C62.9309 32.5131 62.6419 31.5738 62.2084 30.6346C62.6419 29.6953 62.9309 28.756 62.9309 27.7445C62.9309 26.733 62.6419 25.7937 62.2084 24.8545C62.6419 23.9152 62.9309 22.9759 62.9309 21.9644C62.9309 20.9529 62.6419 20.0136 62.2084 19.0743C62.6419 18.1351 62.9309 17.1958 62.9309 16.1843C62.9309 15.1728 62.7141 14.2335 62.2084 13.3665ZM38.0764 58.7403C38.0042 59.0293 37.9319 59.3906 37.7874 59.6796C37.6429 59.9686 37.4984 60.2576 37.3539 60.6188C35.0419 64.1592 28.0335 66.688 20.0136 66.688C10.2597 66.7602 1.95079 62.7864 1.95079 58.1623C1.95079 57.801 2.02304 57.512 2.09529 57.1508C5.3466 60.6188 12.066 62.9309 20.0859 62.9309C25.6492 62.9309 30.5623 61.8471 34.1026 59.9686C34.5361 59.7518 34.9696 59.5351 35.3309 59.3183C35.6921 59.1016 36.1257 58.8126 36.4147 58.5236C36.9927 58.09 37.4984 57.6565 38.0042 57.1508C38.1487 57.512 38.1487 57.801 38.1487 58.1623C38.1487 58.3791 38.1487 58.5958 38.0764 58.7403ZM38.0764 53.0325C38.0764 53.177 38.0042 53.3215 38.0042 53.466C37.9319 53.6105 37.9319 53.8272 37.7874 53.9717C37.7152 54.1162 37.6429 54.2607 37.5707 54.4052C37.4984 54.5497 37.4262 54.7665 37.2817 54.911C37.1372 55.0555 37.0649 55.2 36.9927 55.2723C36.2702 56.2115 35.1864 57.0785 33.8136 57.8733C33.4524 58.09 33.0188 58.3068 32.5853 58.5236C32.1518 58.7403 31.7183 58.8848 31.2848 59.1016C28.178 60.2576 24.2042 60.9801 20.0136 60.9801C12.2827 60.9801 5.56335 58.5958 3.03456 55.2723C2.8178 54.9832 2.60105 54.6942 2.45654 54.4052C2.23979 54.1162 2.16754 53.755 2.09529 53.466C1.95079 53.1047 1.95079 52.8157 1.95079 52.4544C1.95079 52.0932 2.02304 51.8042 2.09529 51.4429C2.45654 51.8042 2.74555 52.1654 3.17906 52.4544C3.39581 52.6712 3.68482 52.8157 3.97382 53.0325H4.04607C4.33508 53.2492 4.55183 53.3937 4.91309 53.6105C8.59791 55.8503 14.0168 57.223 20.1581 57.223C22.4702 57.223 24.6377 57.0063 26.733 56.645C27.1665 56.5728 27.6 56.5005 28.0335 56.4283C28.467 56.2838 28.9728 56.2115 29.334 56.067C31.1403 55.6335 32.8021 54.9832 34.1749 54.2607C34.6084 54.044 34.9696 53.8995 35.3309 53.6827C35.4031 53.6105 35.4031 53.6105 35.4031 53.6105C35.6921 53.466 35.9089 53.2492 36.1979 53.1047H36.2702C36.4147 53.0325 36.4869 52.9602 36.5592 52.888C36.7037 52.8157 36.8482 52.6712 36.9927 52.5267C37.4262 52.2377 37.7874 51.8764 38.0764 51.5152C38.2209 51.8764 38.2209 52.1654 38.2209 52.5267C38.1487 52.5989 38.1487 52.8157 38.0764 53.0325ZM38.0764 47.3246C38.0764 47.4691 38.0042 47.6136 38.0042 47.7581C37.9319 47.9026 37.9319 48.1194 37.7874 48.2639C37.7152 48.4084 37.6429 48.5529 37.5707 48.6974C37.4984 48.8419 37.4262 49.0586 37.2817 49.2031C37.1372 49.3476 37.0649 49.4921 36.9927 49.5644C36.5592 50.1424 35.9089 50.7204 35.1864 51.2984C34.8974 51.5152 34.6084 51.6597 34.3194 51.8764C34.1749 52.0209 33.9581 52.0932 33.8136 52.1654C33.6691 52.2377 33.5246 52.3822 33.3079 52.4544C33.0911 52.5989 32.8021 52.7435 32.5131 52.8157C32.0796 53.0325 31.6461 53.177 31.2126 53.3937C30.0565 53.8272 28.6115 54.2607 27.0942 54.5497C27.0942 54.5497 27.0942 54.5497 27.022 54.5497C26.6607 54.6942 26.2272 54.7665 25.866 54.7665C25.5047 54.8387 25.1435 54.911 24.7822 54.9832C23.2649 55.2 21.6754 55.2723 20.0859 55.2723C14.8838 55.2723 10.1152 54.1885 6.79162 52.3822C6.43037 52.1654 6.06911 52.0209 5.7801 51.8042C5.4911 51.5874 5.20209 51.4429 4.91309 51.2262C4.19058 50.7204 3.61257 50.1424 3.10681 49.4921C2.89005 49.2031 2.6733 48.9141 2.5288 48.6251C2.31204 48.3361 2.23979 47.9749 2.16754 47.6859C2.02304 47.3246 2.02304 47.0356 2.02304 46.6743C2.02304 46.3131 2.09529 46.0241 2.16754 45.6628C2.5288 46.0241 2.8178 46.3853 3.25131 46.6743C3.46806 46.8911 3.75707 47.0356 4.04607 47.2524H4.11832C4.40733 47.4691 4.62408 47.6136 4.98534 47.8304C6.06911 48.4084 7.22513 48.9864 8.59791 49.4921C9.03141 49.7089 9.60942 49.8534 10.1152 49.9979H10.1874C10.7654 50.2147 11.3435 50.3592 11.9937 50.5037C14.5225 51.0817 17.2681 51.4429 20.3026 51.4429C21.3141 51.4429 22.2534 51.3707 23.2649 51.2984C23.6262 51.2984 23.9152 51.2262 24.2042 51.2262C24.4932 51.1539 24.8545 51.1539 25.1435 51.0817C25.7215 51.0094 26.2995 50.9372 26.8775 50.7927C27.311 50.7204 27.7445 50.6482 28.178 50.5759C28.3225 50.5037 28.467 50.5037 28.6115 50.4314C28.9005 50.3592 29.1895 50.2869 29.5508 50.2147C29.8398 50.1424 30.1288 50.0702 30.4178 49.9257H30.49C30.9958 49.7812 31.5738 49.6367 32.0073 49.4199C32.8743 49.1309 33.6691 48.7696 34.3916 48.3361C34.8251 48.1194 35.1864 47.9749 35.5476 47.7581C35.6199 47.6859 35.6199 47.6859 35.6199 47.6859C35.9089 47.5414 36.1257 47.3246 36.4147 47.1801H36.4869C36.6314 47.1079 36.7037 47.0356 36.7759 46.9633C36.9204 46.8911 37.0649 46.7466 37.2094 46.6021C37.6429 46.3131 38.0042 45.9518 38.2932 45.5906C38.4377 45.9518 38.4377 46.2408 38.4377 46.6021C38.1487 46.8911 38.1487 47.1079 38.0764 47.3246ZM38.1487 41.3277C38.1487 41.4723 38.1487 41.5445 38.0764 41.6168C38.0764 41.7613 38.0042 41.9058 38.0042 42.0503C38.0042 42.1225 37.9319 42.1948 37.8597 42.3393C37.9319 42.4115 37.8597 42.4838 37.7874 42.6283C37.7152 42.7728 37.6429 42.9173 37.5707 43.0618C37.4984 43.2063 37.4262 43.423 37.2817 43.5675C37.1372 43.712 37.0649 43.8565 36.9927 43.9288C36.5592 44.5068 35.9089 45.0848 35.1864 45.6628C34.8974 45.8796 34.6084 46.0241 34.3194 46.2408C34.1749 46.3853 33.9581 46.4576 33.8136 46.5298C33.6691 46.6021 33.5246 46.7466 33.3079 46.8189C33.0911 46.9634 32.8021 47.1079 32.5131 47.1801C32.0796 47.3969 31.6461 47.5414 31.2126 47.7581C30.2733 48.1194 29.334 48.4084 28.2503 48.6974C27.889 48.8419 27.4555 48.9141 27.022 48.9864C27.022 48.9864 27.022 48.9864 26.9497 48.9864C26.5885 49.0586 26.2272 49.1309 25.866 49.2031C25.866 49.2031 25.866 49.2031 25.7937 49.2031C25.7937 49.2031 25.7937 49.2031 25.7215 49.2031C25.4325 49.2754 25.2157 49.3476 24.9267 49.3476C24.7822 49.3476 24.7099 49.3476 24.6377 49.4199C24.4209 49.4921 24.1319 49.4921 23.9152 49.4921H23.8429C23.4817 49.5644 23.1927 49.5644 22.8314 49.5644C21.8199 49.7089 20.8806 49.7089 19.8691 49.7089C17.8461 49.7089 15.8953 49.4921 14.0168 49.2031H14.1613C13.2942 49.0586 12.5717 48.9141 11.777 48.6974C9.89843 48.2639 8.1644 47.6136 6.71937 46.8189C6.35811 46.6021 5.99686 46.4576 5.70785 46.2408C5.41885 46.0241 5.12984 45.8796 4.84084 45.6628C4.11832 45.1571 3.54031 44.5791 3.03456 43.9288C2.8178 43.6398 2.60105 43.3508 2.45654 43.0618C2.23979 42.7728 2.16754 42.4115 2.09529 42.1225C1.95079 41.7613 1.95079 41.4723 1.95079 41.111C1.95079 40.7497 2.02304 40.4607 2.09529 40.0995C2.45654 40.4607 2.74555 40.822 3.17906 41.111C3.39581 41.3278 3.68482 41.4723 3.97382 41.689H4.04607C4.33508 41.9058 4.55183 42.0503 4.91309 42.267C5.99686 42.845 7.15288 43.423 8.52565 43.9288C8.95916 44.1455 9.53717 44.2901 10.0429 44.4346H10.1152C10.6932 44.6513 11.2712 44.7958 11.9215 44.9403C14.4503 45.5183 17.1958 45.8796 20.2304 45.8796C21.2419 45.8796 22.1812 45.8073 23.1927 45.7351C23.5539 45.7351 23.8429 45.6628 24.1319 45.6628C24.4209 45.5906 24.7822 45.5906 25.0712 45.5183C25.288 45.5183 25.4325 45.4461 25.577 45.4461C25.9382 45.3738 26.3717 45.3016 26.733 45.2293C26.9497 45.1571 27.1665 45.1571 27.3832 45.0848H27.4555C27.6723 45.0126 27.8168 45.0126 28.0335 44.9403C28.178 44.8681 28.3225 44.8681 28.467 44.7958C28.756 44.7236 29.045 44.6513 29.4063 44.5791C29.6953 44.5068 29.9843 44.4346 30.2733 44.2901H30.3455C30.7791 44.1455 31.1403 44.0733 31.5016 43.9288C31.6461 43.8565 31.7906 43.7843 31.8628 43.7843C32.7298 43.4953 33.5246 43.134 34.2471 42.7005C34.6806 42.4838 35.0419 42.3393 35.4031 42.1225C35.4754 42.0503 35.4754 42.0503 35.4754 42.0503C35.6921 41.9058 35.8366 41.7613 36.0534 41.6168C36.0534 41.5445 36.1257 41.5445 36.1257 41.5445H36.1979L36.2702 41.4723H36.3424C36.4869 41.4 36.5592 41.3277 36.6314 41.2555C36.7759 41.1832 36.9204 41.0387 37.0649 40.8942C37.2817 40.6775 37.4984 40.533 37.7152 40.3162L38.1487 39.8827C38.2209 40.0272 38.2209 40.1717 38.2209 40.244C38.2932 40.4607 38.2932 40.6775 38.2932 40.8942C38.1487 41.111 38.1487 41.1832 38.1487 41.3277ZM38.1487 35.5476C38.1487 35.6921 38.1487 35.7644 38.0764 35.8366C38.0764 35.9812 38.0042 36.1257 38.0042 36.2702C38.0042 36.3424 37.9319 36.4147 37.8597 36.5592C37.9319 36.6314 37.8597 36.7037 37.7874 36.8482C37.7152 36.9927 37.6429 37.1372 37.5707 37.2817C37.4984 37.4262 37.4262 37.6429 37.2817 37.7874C37.1372 37.9319 37.0649 38.0764 36.9927 38.1487C36.5592 38.7267 35.9089 39.3047 35.1864 39.8827C34.8974 40.0995 34.6084 40.244 34.3194 40.4607C34.1749 40.6052 33.9581 40.6775 33.8136 40.7497C33.6691 40.822 33.5246 40.9665 33.3079 41.0387C33.0911 41.1832 32.8021 41.3277 32.5131 41.4C32.2241 41.5445 31.9351 41.689 31.5738 41.8335C31.4293 41.9058 31.2848 41.9058 31.2126 41.978C30.2733 42.3393 29.334 42.6283 28.2503 42.9173C27.889 43.0618 27.4555 43.134 27.022 43.2063C27.022 43.2063 27.022 43.2063 26.9497 43.2063C26.5885 43.2785 26.2272 43.3508 25.866 43.423C25.866 43.423 25.866 43.423 25.7937 43.423C25.7937 43.423 25.7937 43.423 25.7215 43.423C25.4325 43.4953 25.2157 43.5675 24.9267 43.5675C24.7822 43.5675 24.7099 43.5675 24.6377 43.6398C24.4209 43.712 24.1319 43.712 23.9152 43.712H23.8429C23.4817 43.7843 23.1927 43.7843 22.8314 43.7843C21.8199 43.9288 20.8806 43.9288 19.8691 43.9288C17.8461 43.9288 15.8953 43.712 14.0168 43.423H14.1613C13.2942 43.2785 12.5717 43.134 11.777 42.9173C9.89843 42.4838 8.1644 41.8335 6.71937 41.0387C6.35811 40.822 5.99686 40.6775 5.70785 40.4607C5.41885 40.244 5.12984 40.0995 4.84084 39.8827C4.11832 39.377 3.54031 38.799 3.03456 38.1487C2.8178 37.8597 2.60105 37.5707 2.45654 37.2817C2.23979 36.9927 2.16754 36.6314 2.09529 36.3424C1.95079 35.9812 1.95079 35.6921 1.95079 35.3309C1.95079 30.7068 10.2597 26.733 20.0859 26.733C21.0974 26.733 22.0366 26.8052 23.0482 26.8775C23.3372 26.8775 23.6984 26.9497 23.9874 26.9497C24.2764 26.9497 24.6377 27.022 24.9267 27.0942C25.1435 27.0942 25.288 27.1665 25.5047 27.1665C25.866 27.2387 26.2272 27.311 26.5885 27.3832C26.9497 27.4555 27.2387 27.5277 27.5277 27.6C27.6723 27.6 27.7445 27.6723 27.889 27.6723C28.3225 27.7445 28.756 27.889 29.1895 28.0335C30.9236 28.467 32.5131 29.1173 33.8136 29.8398C34.2471 30.0565 34.6084 30.2733 34.9696 30.5623H35.0419C35.1141 30.6346 35.1864 30.7068 35.2586 30.7068C35.5476 30.9236 35.7644 31.0681 35.9812 31.2848H36.0534C36.3424 31.5016 36.5592 31.7183 36.7759 32.0073C37.6429 32.8021 38.0764 33.7414 38.2932 34.6806C38.3654 34.8974 38.3654 35.1141 38.3654 35.3309C38.1487 35.4031 38.1487 35.4754 38.1487 35.5476ZM42.9173 59.1016C41.9058 59.1016 40.9665 59.0293 39.955 58.9571C40.0272 58.6681 40.0272 58.4513 40.0272 58.1623C40.0272 57.1508 39.7382 56.2115 39.3047 55.2723C39.377 55.2 39.377 55.1278 39.377 55.1278C40.533 55.2723 41.689 55.2723 42.9173 55.2723C50.8649 55.2723 57.6565 52.9602 60.9078 49.4921C61.0524 49.8534 61.0524 50.1424 61.0524 50.5037C61.0524 55.2 52.7435 59.1016 42.9173 59.1016ZM60.9078 45.8073C60.8356 46.0963 60.6911 46.4576 60.5466 46.7466C60.4021 47.0356 60.1853 47.3246 59.9686 47.6136C57.4398 50.9372 50.6482 53.3215 42.9895 53.3215C41.978 53.3215 41.0387 53.2492 40.0272 53.177C40.0995 52.888 40.0995 52.6712 40.0995 52.3822C40.0995 51.3707 39.8105 50.4314 39.377 49.4921C39.4492 49.4199 39.4492 49.3476 39.4492 49.3476C40.6052 49.4921 41.7613 49.4921 42.9895 49.4921C49.1309 49.4921 54.5497 48.1194 58.2346 45.8796C58.5236 45.6628 58.8126 45.4461 59.1016 45.3016H59.1738C59.4628 45.0848 59.6796 44.9403 59.9686 44.7236C60.4021 44.4346 60.7634 44.0733 61.0524 43.712C61.1969 44.0733 61.1969 44.3623 61.1969 44.7236C61.1969 45.0848 60.9801 45.5183 60.9078 45.8073ZM60.9078 40.0995C60.8356 40.3885 60.6911 40.7497 60.5466 41.0387C60.4021 41.3277 60.1853 41.6168 59.9686 41.9058C59.5351 42.4838 58.8848 43.0618 58.1623 43.6398C57.8733 43.8565 57.5843 44.001 57.2953 44.2178C57.0063 44.4346 56.645 44.5791 56.2838 44.7958C52.9602 46.5298 48.1916 47.6859 42.9173 47.6859C41.9058 47.6859 40.9665 47.6136 39.955 47.5414C40.0272 47.2524 40.0272 47.0356 40.0272 46.7466C40.0272 45.7351 39.7382 44.7958 39.3047 43.8565C39.377 43.7843 39.377 43.712 39.377 43.712C40.533 43.8565 41.689 43.8565 42.9173 43.8565C45.8796 43.8565 48.6974 43.5675 51.2262 42.9173C51.8764 42.7728 52.4545 42.6283 53.0325 42.4115H53.1047C53.6105 42.267 54.1885 42.1225 54.622 41.9058C55.9225 41.4 57.1508 40.822 58.2346 40.244C58.5236 40.0272 58.8126 39.8105 59.1016 39.666H59.1738C59.4628 39.4492 59.6796 39.3047 59.9686 39.088C60.4021 38.799 60.7634 38.4377 61.0524 38.0764C61.1969 38.4377 61.1969 38.7267 61.1969 39.088C61.1969 39.4492 60.9801 39.7382 60.9078 40.0995ZM60.9078 34.3916C60.8356 34.6806 60.6911 35.0419 60.5466 35.3309C60.4021 35.6199 60.1853 35.9089 59.9686 36.1979C59.5351 36.7759 58.8848 37.3539 58.1623 37.9319C57.8733 38.1487 57.5843 38.2932 57.2953 38.5099C57.0063 38.7267 56.645 38.8712 56.2838 39.088C54.8387 39.8827 53.1047 40.533 51.2262 40.9665C50.4314 41.1832 49.7089 41.3278 48.8419 41.4723C46.9633 41.7613 45.0126 41.978 42.9895 41.978C41.978 41.978 41.0387 41.9058 40.0272 41.8335C40.0995 41.6168 40.0995 41.4 40.0995 41.1832V41.0387C40.0995 40.7497 40.0272 40.4607 40.0272 40.1717C39.955 39.4492 39.7382 38.799 39.377 38.1487C39.4492 38.0764 39.4492 38.0042 39.4492 38.0042C40.6052 38.1487 41.7613 38.1487 42.9895 38.1487C45.9518 38.1487 48.7696 37.8597 51.2984 37.2094C51.9487 37.0649 52.5267 36.9204 53.1047 36.7037H53.177C53.6827 36.5592 54.2607 36.4147 54.6942 36.1979C55.9948 35.6921 57.223 35.1141 58.3068 34.5361C58.5958 34.3194 58.8848 34.1026 59.1738 33.9581H59.2461C59.5351 33.7414 59.7518 33.5969 60.0408 33.3801C60.4743 33.0911 60.8356 32.7298 61.1246 32.3686C61.2691 32.7298 61.2691 33.0188 61.2691 33.3801C61.2691 33.7414 60.9801 34.0304 60.9078 34.3916ZM60.9078 28.6838C60.8356 28.9728 60.6911 29.334 60.5466 29.623C60.4021 29.912 60.1853 30.201 59.9686 30.4901C59.5351 31.0681 58.8848 31.6461 58.1623 32.2241C57.8733 32.4408 57.5843 32.5853 57.2953 32.8021C57.0063 33.0188 56.645 33.1633 56.2838 33.3801C54.8387 34.1749 53.1047 34.8251 51.2262 35.2586C50.4314 35.4754 49.7089 35.6199 48.8419 35.7644C46.9633 36.0534 45.0126 36.2702 42.9895 36.2702C41.978 36.2702 41.0387 36.1979 40.0272 36.1257C40.0995 35.9089 40.0995 35.6921 40.0995 35.4754V35.3309C40.0995 35.0419 40.0272 34.7529 40.0272 34.4639C39.8827 33.6691 39.666 32.9466 39.3047 32.2963C40.4607 32.3686 41.689 32.4408 42.9895 32.4408C45.9518 32.4408 48.7696 32.1518 51.2984 31.5016C51.9487 31.3571 52.5267 31.2126 53.1047 30.9958H53.177C53.6827 30.8513 54.2607 30.7068 54.6942 30.4901C55.9948 29.9843 57.223 29.4063 58.3068 28.8283C58.5958 28.6115 58.8848 28.3948 59.1738 28.2503H59.2461C59.5351 28.0335 59.7518 27.889 60.0408 27.6723C60.4743 27.3832 60.8356 27.022 61.1246 26.6607C61.2691 27.022 61.2691 27.311 61.2691 27.6723C61.2691 28.0335 60.9801 28.3225 60.9078 28.6838ZM60.9078 22.9759C60.8356 23.2649 60.6911 23.6262 60.5466 23.9152C60.4021 24.2042 60.1853 24.4932 59.9686 24.7822C59.5351 25.3602 58.8848 25.9382 58.1623 26.5162C57.8733 26.733 57.5843 26.8775 57.2953 27.0942C57.0063 27.311 56.645 27.4555 56.2838 27.6723C54.8387 28.467 53.1047 29.1173 51.2262 29.5508C50.4314 29.7675 49.7089 29.912 48.8419 30.0565C46.9633 30.3455 45.0126 30.5623 42.9895 30.5623C41.111 30.5623 39.3047 30.4178 37.5707 30.1288C37.4984 29.9843 37.4262 29.9843 37.3539 29.9843C37.0649 29.6953 36.7037 29.4063 36.3424 29.1895C35.0419 28.178 33.4524 27.3832 31.6461 26.733C31.2126 26.5885 30.7791 26.444 30.2733 26.2995C29.8398 26.155 29.334 26.0105 28.8283 25.9382C28.0335 25.7215 27.1665 25.5047 26.2995 25.3602C26.155 25.2157 25.9382 25.0712 25.866 24.8545C25.6492 24.5654 25.4325 24.2764 25.288 23.9874C25.0712 23.6984 24.999 23.3372 24.9267 23.0482C24.7822 22.6869 24.7822 22.3979 24.7822 22.0366C24.7822 21.6754 24.8545 21.3864 24.9267 21.0251C25.288 21.3864 25.577 21.7476 26.0105 22.0366C26.2272 22.2534 26.5162 22.3979 26.8052 22.6147H26.8775C27.1665 22.8314 27.3832 22.9759 27.7445 23.1927C28.8283 23.7707 29.9843 24.3487 31.3571 24.8545C31.7906 25.0712 32.3686 25.2157 32.8743 25.3602H32.9466C33.5246 25.577 34.1026 25.7215 34.7529 25.866C37.2817 26.444 40.0272 26.8052 43.0618 26.8052C46.0963 26.8052 48.8419 26.5162 51.3707 25.866C52.0209 25.7215 52.5989 25.577 53.177 25.3602H53.2492C53.755 25.2157 54.333 25.0712 54.7665 24.8545C56.067 24.3487 57.2953 23.7707 58.3791 23.1927C58.6681 22.9759 58.9571 22.7592 59.2461 22.6147H59.3183C59.6073 22.3979 59.8241 22.2534 60.1131 22.0366C60.5466 21.7476 60.9079 21.3864 61.1969 21.0251C61.3414 21.3864 61.3414 21.6754 61.3414 22.0366C61.3414 22.3979 60.9801 22.6147 60.9078 22.9759ZM60.9078 17.2681C60.8356 17.5571 60.6911 17.9183 60.5466 18.2073C60.4021 18.4963 60.1853 18.7853 59.9686 19.0743C59.5351 19.6524 58.8848 20.2304 58.1623 20.8084C57.8733 21.0251 57.5843 21.1696 57.2953 21.3864C57.0063 21.6031 56.645 21.7476 56.2838 21.9644C54.8387 22.7592 53.1047 23.4094 51.2262 23.8429C50.4314 24.0597 49.7089 24.2042 48.8419 24.3487C46.9633 24.6377 45.0126 24.8545 42.9895 24.8545C40.9665 24.8545 39.0157 24.6377 37.1372 24.3487H37.0649C36.1979 24.2042 35.4754 24.0597 34.6806 23.8429C32.8021 23.4094 31.0681 22.7592 29.623 21.9644C29.2618 21.7476 28.9005 21.6031 28.6115 21.3864C28.3225 21.1696 28.0335 21.0251 27.7445 20.8084C27.022 20.3026 26.444 19.7246 25.9382 19.0743C25.7215 18.7853 25.5047 18.4963 25.3602 18.2073C25.1435 17.9183 25.0712 17.5571 24.999 17.2681C24.8544 16.9068 24.8544 16.6178 24.8544 16.2565C24.8544 15.8953 24.9267 15.6063 24.999 15.245C25.3602 15.6063 25.6492 15.9675 26.0827 16.2565C26.2995 16.4733 26.5885 16.6178 26.8775 16.8346H26.9497C27.2387 17.0513 27.4555 17.1958 27.8168 17.4126C28.9005 17.9906 30.0565 18.5686 31.4293 19.0743C31.8628 19.2911 32.4408 19.4356 32.9466 19.5801H33.0188C33.5969 19.7969 34.1749 19.9414 34.8251 20.0859C37.3539 20.6639 40.0995 21.0251 43.134 21.0251C46.1686 21.0251 48.9141 20.7361 51.4429 20.0859C52.0932 19.9414 52.6712 19.7969 53.2492 19.5801H53.3215C53.8272 19.4356 54.4052 19.2911 54.8387 19.0743C56.1393 18.5686 57.3675 17.9906 58.4513 17.4126C58.7403 17.1958 59.0293 16.9791 59.3183 16.8346H59.3906C59.6796 16.6178 59.8963 16.4733 60.1853 16.2565C60.6188 15.9675 60.9801 15.6063 61.2691 15.245C61.4136 15.6063 61.4136 15.8953 61.4136 16.2565C61.4136 16.6178 60.9801 16.9068 60.9078 17.2681ZM60.9078 11.488C60.8356 11.777 60.6911 12.1382 60.5466 12.4272C60.4021 12.7162 60.1853 13.0052 59.9686 13.2942C59.5351 13.8723 58.8848 14.4503 58.1623 15.0283C57.8733 15.245 57.5843 15.3895 57.2953 15.6063C57.0063 15.823 56.645 15.9675 56.2838 16.1843C54.8387 16.9791 53.1047 17.6293 51.2262 18.0628C50.4314 18.2796 49.7089 18.4241 48.8419 18.5686C46.9633 18.8576 45.0126 19.0743 42.9895 19.0743C40.9665 19.0743 39.0157 18.8576 37.1372 18.5686H37.0649C36.1979 18.4241 35.4754 18.2796 34.6806 18.0628C32.8021 17.6293 31.0681 16.9791 29.623 16.1843C29.2618 15.9675 28.9005 15.823 28.6115 15.6063C28.3225 15.3895 28.0335 15.245 27.7445 15.0283C27.022 14.5225 26.444 13.9445 25.9382 13.2942C25.7215 13.0052 25.5047 12.7162 25.3602 12.4272C25.1435 12.1382 25.0712 11.777 24.999 11.488C24.8544 11.1267 24.8544 10.8377 24.8544 10.4764C24.8544 5.85236 33.1633 1.87853 42.9895 1.87853C52.8157 1.87853 61.0524 5.85236 61.0524 10.4764C61.0524 10.8377 60.9801 11.199 60.9078 11.488Z" fill="black"/>
</svg>
