<svg width="74" height="69" viewBox="0 0 74 69" fill="none" xmlns="http://www.w3.org/2000/svg">
<path d="M15.8506 4.13931C13.4446 0.11195 8.21428 -1.19563 4.18693 1.19289L4.15206 1.21032C2.1994 2.37843 0.822082 4.22648 0.26418 6.42322C-0.293722 8.61996 0.0375325 10.9039 1.20564 12.8565L1.65893 13.6236L16.3039 4.88899L15.8506 4.13931ZM2.30401 11.2351C1.6938 9.8578 1.57176 8.34101 1.93789 6.87651C2.37375 5.13307 3.47212 3.65114 5.02378 2.72712L5.05865 2.70968C6.13959 2.06461 7.32513 1.75079 8.51067 1.75079C10.5505 1.75079 12.538 2.67481 13.8456 4.34852L2.30401 11.2351Z" fill="black"/>
<path d="M69.775 1.22771L69.7401 1.21028C65.7128 -1.19568 60.4824 0.129342 58.0939 4.1567L57.6406 4.92381L72.2856 13.6585L72.7388 12.8913C73.907 10.9387 74.2382 8.65478 73.6803 6.45804C73.1224 4.2613 71.7277 2.37838 69.775 1.22771ZM71.623 11.2351L60.064 4.34848C62.1213 1.69844 65.8871 0.94876 68.851 2.70964L68.8858 2.72707C70.4375 3.6511 71.5359 5.13303 71.9717 6.87647C72.3379 8.34096 72.2158 9.85776 71.623 11.2351Z" fill="black"/>
<path d="M61.302 62.1437H53.8924L66.9856 12.6822L65.2945 12.2289L52.0792 62.1437H47.3021L38.0968 48.1613L63.3593 9.77066L61.8948 8.81177L37.0681 46.5748L12.2241 8.81177L10.7596 9.77066L36.0221 48.1613L26.8167 62.1437H22.0396L8.84178 12.2289L7.15064 12.6822L20.2439 62.1437H12.6076V66.7987H4.09961V68.5421H12.625H61.3194H69.8449V66.7987H61.3194V62.1437H61.302ZM37.0681 49.7478L45.2274 62.1437H28.9088L37.0681 49.7478ZM14.3685 66.7987V63.8871H59.576V66.7987H14.3685Z" fill="black"/>
</svg>
