<svg width="19" height="19" viewBox="0 0 19 19" fill="none" xmlns="http://www.w3.org/2000/svg">
<path d="M9.1126 4.18781C6.29386 4.18781 4 6.38194 4 9.07812C4 11.7743 6.29386 13.9673 9.1126 13.9673C11.9313 13.9673 14.224 11.7743 14.224 9.07812C14.224 6.38194 11.9313 4.18781 9.1126 4.18781ZM9.1126 12.5739C7.09696 12.5739 5.45796 11.005 5.45796 9.07812C5.45796 7.15012 7.09696 5.58238 9.1126 5.58238C11.127 5.58238 12.7672 7.15012 12.7672 9.07812C12.766 11.005 11.127 12.5739 9.1126 12.5739Z" fill="black"/>
<path d="M9.67431 4.66001C10.0467 4.66001 10.3486 4.37124 10.3486 4.01502C10.3486 3.6588 10.0467 3.37003 9.67431 3.37003C9.3019 3.37003 9 3.6588 9 4.01502C9 4.37124 9.3019 4.66001 9.67431 4.66001Z" fill="black"/>
<path d="M14.5796 0H4.39698C1.96825 0 0 1.88384 0 4.20697V13.9469C0 16.27 1.96947 18.1539 4.39698 18.1539H14.5796C17.0084 18.1539 18.9778 16.27 18.9778 13.9469V4.20813C18.9778 1.88384 17.0084 0 14.5796 0ZM17.5199 13.9469C17.5199 15.4972 16.2004 16.7593 14.5796 16.7593H4.39698C2.77621 16.7593 1.45797 15.4972 1.45797 13.9469V4.20813C1.45797 2.65783 2.77621 1.39574 4.39698 1.39574H14.5796C16.2004 1.39574 17.5199 2.65667 17.5199 4.20813V13.9469Z" fill="black"/>
</svg>
