<svg width="23" height="19" viewBox="0 0 23 19" fill="none" xmlns="http://www.w3.org/2000/svg">
<path d="M21.6372 4.24982C21.4773 2.65923 20.4552 1.44445 19.0146 1.33906C12.7872 0.886981 10.2126 0.886981 3.98403 1.33906C2.54465 1.44445 1.52259 2.65784 1.36266 4.24982C0.879114 9.0923 0.879114 9.9077 1.36266 14.7502C1.52134 16.3422 2.54465 17.5556 3.98528 17.6609C10.2126 18.113 12.7872 18.113 19.0158 17.6609C20.4552 17.5569 21.4785 16.3422 21.6384 14.7502C22.1207 9.9077 22.1207 9.09369 21.6372 4.24982ZM15.118 9.9188L9.73031 13.5229C9.59037 13.6144 9.39546 13.6172 9.25302 13.5285C9.11183 13.4397 8.99688 13.2844 8.99688 13.1027V5.89865C8.99688 5.71698 9.11183 5.56306 9.25302 5.47292C9.39546 5.38417 9.57413 5.38694 9.71407 5.47847L15.108 9.08259C15.2429 9.17273 15.3254 9.32527 15.3254 9.50139C15.3254 9.6775 15.2529 9.82866 15.118 9.9188Z" stroke="black" stroke-width="1.3"/>
</svg>
